<?xml version="1.0" encoding="UTF-8" standalone="no"?>
<svg
   version="1.0"
   width="60pt"
   height="60pt"
   viewBox="0 0 60 60"
   preserveAspectRatio="xMidYMid"
   id="svg2"
   sodipodi:docname="hemis.site-icon_1.svg"
   inkscape:version="1.3 (0e150ed6c4, 2023-07-21)"
   xmlns:inkscape="http://www.inkscape.org/namespaces/inkscape"
   xmlns:sodipodi="http://sodipodi.sourceforge.net/DTD/sodipodi-0.dtd"
   xmlns="http://www.w3.org/2000/svg"
   xmlns:svg="http://www.w3.org/2000/svg">
  <defs
     id="defs2" />
  <sodipodi:namedview
     id="namedview2"
     pagecolor="#ffffff"
     bordercolor="#000000"
     borderopacity="0.25"
     inkscape:showpageshadow="2"
     inkscape:pageopacity="0.0"
     inkscape:pagecheckerboard="0"
     inkscape:deskcolor="#d1d1d1"
     inkscape:document-units="pt"
     inkscape:zoom="5.745"
     inkscape:cx="48.21584"
     inkscape:cy="40.382942"
     inkscape:window-width="1920"
     inkscape:window-height="991"
     inkscape:window-x="-9"
     inkscape:window-y="-9"
     inkscape:window-maximized="1"
     inkscape:current-layer="g2" />
  <g
     transform="matrix(0.00400034,0,0,-0.00400113,45.511156,131.93184)"
     fill="#000000"
     stroke="none"
     id="g2"
     style="fill:#000000;fill-opacity:1">
    <path
       id="rect2"
       style="fill:#ffffff;fill-opacity:1;stroke-width:171.003"
       d="m -10064.768,31864.193 c -28.182,-27.765 -45.075,-65.315 -60.786,-102.511 4.428,2.634 8.75,5.43 13.182,8.055 17.972,28.636 39.147,54.882 65.547,70.292 l 0.366,0.367 c 6.381,8.001 12.881,15.906 19.407,23.797 z m 289.648,0 c 60.9877,-29.804 39.8671,-48.463 6.2251,-92.626 -17.5498,-17.762 -35.5476,-34.966 -53.4623,-52.353 0.7392,-2.682 1.3639,-5.424 2.1971,-8.054 -74.2509,-94.976 -146.385,-194.841 -239.4819,-272.384 -25.052,-5.146 -52.724,-27.818 -75.066,-15.377 -7.667,4.269 -14.471,9.736 -20.873,15.743 -16.423,-10.169 -34.278,-17.832 -51.265,-27.092 -19.817,1.966 -40.944,-0.562 -60.42,2.929 V 19315.126 c 12.099,6.334 25.095,13.023 40.28,20.136 2.656,1.244 5.001,1.638 7.69,1.83 18.821,1.337 38.335,-20.291 57.124,-28.556 44.185,-19.467 96.183,-46.286 139.148,-67.73 140.417,-75.736 274.2593,-162.645 408.2908,-248.953 117.9371,-70.848 222.2758,-159.45 320.0411,-255.543 16.262,-15.582 35.3487,-34.037 53.4623,-53.818 H 1617.8324 c 13.262,18.998 34.351,37.309 65.546,51.987 116.129,54.642 216.894,135.459 323.337,206.119 144.308,87.652 281.494,186.038 414.149,290.323 59.593,50.578 118.428,102.069 176.133,154.863 11.991,66.094 32.255,130.601 59.687,191.841 35.922,71.165 96.558,121.113 157.458,169.874 1.715,1.216 3.413,2.446 5.126,3.661 v 11396.926 c -23.317,3.32 -49.778,15.752 -77.264,40.638 -47.351,42.872 -99.97,78.77 -147.936,121.182 -51.079,48.12 -96.438,100.751 -137.684,157.426 -6.498,10.288 -12.626,20.787 -19.041,31.119 -50.172,47.843 -94.536,100.435 -139.149,156.328 -47.285,64.184 -92.885,132.29 -114.98,209.414 z m 12280.5724,-18.672 c 7.204,-11.831 14.125,-23.227 20.14,-34.048 2.642,-3.81 5.398,-7.551 8.056,-11.349 -6.031,11.634 -12.047,23.277 -18.309,34.78 -3.272,3.563 -6.609,7.059 -9.887,10.617 z m -12719.9884,-12534.056 -0.366,-0.366 c 2.411,-2.36 4.857,-4.66 7.324,-6.956 0.1,0.254 0.27,0.474 0.366,0.732 0.864,2.324 -5.22,5.882 -7.324,6.59 z m -52.73,-170.973 v -32.949 c 18.133,-2.83 36.352,-6.643 53.463,-10.983 -17.8,14.672 -35.606,29.332 -53.463,43.932 z" />
    <path
       d="m -7391.2516,32907.276 c -373,-35 -707,-102 -1019,-206 -1087,-361 -1996.0004,-1158 -2501.0004,-2193 -191,-391 -316,-789 -380,-1215 -52,-338 -49,-123 -52,-3805 -4,-3663 -5,-3524 43,-3880 166,-1206 847,-2282 1884.0004,-2974 599,-400 1235,-620 2015,-696 142,-14 541,-16 3625,-13 3258.00002,3 3473.00002,4 3600.00002,21 646,85 1171,257 1677.99998,549 497,285 955,694 1306,1167 428,577 705,1252 800,1951 47,349 46,233 46,3810 0,3274 -1,3365 -20,3568 -65,689 -261,1296 -594,1846 -669,1105 -1791,1855 -3045.9999793,2035 -79.9999997,12 -192.0000007,27 -250.0000007,33 -163,18 -6944.00002,20 -7135.00002,2 z m 7019.00002,-1064 c 576,-48 1130,-250 1600.99998,-583 612,-435 1058,-1080 1250,-1812 39,-145 46,-183 78,-370 l 21,-130 4,-3450 c 2,-3096 1,-3466 -13,-3610 -139,-1401 -1184,-2556 -2564.9999793,-2835 -79.9999997,-16 -181.0000007,-35 -225.0000007,-42 -111,-17 -6962.00002,-25 -7135.00002,-8 -604,59 -1161,274 -1635,630 -627,471 -1056.0004,1146 -1219.0004,1916 -14,65 -33,178 -43,249 -17,123 -18,309 -18,3625 0,3344 1,3501 18,3625 81,569 273.0004,1048 601.0004,1495 201,275 493,556 781,753 458,312 1013,507 1565,550 115,9 6824.00002,6 6934.00002,-3 z"
       id="path1"
       style="display:inline;fill:#000000;fill-opacity:1" />
    <path
       d="m -3947.2516,26483.276 c -580,-52 -1022,-588 -959,-1165 28,-261 134,-480 322,-663 203,-198 448,-296 738,-296 177,0 331,34 466,102 584,295 778,1016 418,1553 -171,255 -466,438 -748,464 -124,11 -153,12 -237,5 z"
       id="path2"
       style="fill:#000000;fill-opacity:1" />
  </g>
</svg>
