<?xml version="1.0" encoding="UTF-8" standalone="no"?>
<svg
   id="ic_empty_dark_error"
   width="100"
   height="100"
   viewBox="0 0 100 100"
   version="1.1"
   sodipodi:docname="img-empty-dark-error.svg"
   inkscape:version="1.3 (0e150ed6c4, 2023-07-21)"
   xmlns:inkscape="http://www.inkscape.org/namespaces/inkscape"
   xmlns:sodipodi="http://sodipodi.sourceforge.net/DTD/sodipodi-0.dtd"
   xmlns="http://www.w3.org/2000/svg"
   xmlns:svg="http://www.w3.org/2000/svg">
  <sodipodi:namedview
     id="namedview1"
     pagecolor="#ffffff"
     bordercolor="#000000"
     borderopacity="0.25"
     inkscape:showpageshadow="2"
     inkscape:pageopacity="0.0"
     inkscape:pagecheckerboard="0"
     inkscape:deskcolor="#d1d1d1"
     inkscape:zoom="8.13"
     inkscape:cx="50.061501"
     inkscape:cy="50"
     inkscape:window-width="1920"
     inkscape:window-height="1009"
     inkscape:window-x="1912"
     inkscape:window-y="562"
     inkscape:window-maximized="1"
     inkscape:current-layer="ic_empty_dark_error" />
  <defs
     id="defs1">
    <style
       type="text/css"
       id="style1">&#10;            .cls-1{fill:#413d4a}.cls-2{fill:#a09ea5}.cls-3{fill:none}&#10;        </style>
  </defs>
  <g
     id="Group_9065"
     data-name="Group 9065">
    <g
       id="Group_9063"
       data-name="Group 9063">
      <path
         id="Path_19009"
         d="M50 24L28 64h44zm3 13l-1 12h-4l-1-12zm-3 22a3 3 0 1 1 3-3 3 3 0 0 1-3 3z"
         class="cls-1"
         data-name="Path 19009" />
    </g>
    <g
       id="Group_9064"
       data-name="Group 9064">
      <path
         id="Path_19012"
         d="M64 65h9.691L50 21.925 26.309 65H60v-2H29.691L50 26.075 70.309 63H64z"
         class="cls-2"
         data-name="Path 19012" />
      <path
         id="Path_19013"
         d="M45.913 36l1.167 14h5.84l1.167-14zm5.167 12h-2.16l-.833-10h3.826z"
         class="cls-2"
         data-name="Path 19013" />
      <path
         id="Path_19014"
         d="M50 52a4 4 0 1 0 4 4 4 4 0 0 0-4-4zm0 6a2 2 0 1 1 2-2 2 2 0 0 1-2 2z"
         class="cls-2"
         data-name="Path 19014" />
    </g>
  </g>
  <path
     id="Rectangle_4727"
     d="M0 0h100v100H0z"
     class="cls-3"
     data-name="Rectangle 4727" />
</svg>
