<?xml version="1.0" standalone="no"?>
<!DOCTYPE svg PUBLIC "-//W3C//DTD SVG 20010904//EN"
 "http://www.w3.org/TR/2001/REC-SVG-20010904/DTD/svg10.dtd">
<svg version="1.0" xmlns="http://www.w3.org/2000/svg"
 width="415.000000pt" height="100.000000pt" viewBox="0 0 415.000000 100.000000"
 preserveAspectRatio="xMidYMid meet">

<g transform="translate(0.000000,100.000000) scale(0.100000,-0.100000)"
fill="#000000" stroke="none">
<path d="M335 896 c-46 -20 -94 -64 -118 -110 -21 -39 -22 -53 -22 -276 0
-256 2 -267 64 -333 58 -63 77 -67 336 -67 256 0 282 4 338 58 16 15 39 45 50
67 21 38 22 53 22 275 0 223 -1 237 -22 276 -25 47 -73 91 -120 111 -45 18
-485 18 -528 -1z m525 -56 c22 -11 52 -39 67 -62 l28 -42 0 -227 0 -227 -30
-43 c-54 -75 -68 -79 -323 -79 -251 0 -271 4 -320 68 l-27 35 0 246 c0 242 0
247 23 279 47 66 71 71 320 72 204 0 226 -2 262 -20z"/>
<path d="M562 548 c-7 -7 -12 -24 -12 -38 0 -33 17 -50 50 -50 14 0 31 5 38
12 7 7 12 24 12 38 0 33 -17 50 -50 50 -14 0 -31 -5 -38 -12z"/>
<path d="M1260 510 c0 -258 1 -270 19 -270 27 0 31 18 31 141 l0 109 155 0
154 0 3 -122 c3 -119 4 -123 26 -126 l22 -3 -2 268 c-3 260 -4 268 -23 268
-19 0 -20 -8 -23 -117 l-3 -118 -154 0 -155 0 0 104 c0 118 -4 136 -31 136
-18 0 -19 -12 -19 -270z"/>
<path d="M1936 749 c-8 -40 -8 -457 0 -486 6 -23 9 -23 170 -23 157 0 164 1
164 20 0 14 -7 20 -22 21 -13 0 -34 2 -48 3 -14 1 -67 3 -117 4 l-93 2 0 100
0 100 125 0 c118 0 125 1 125 20 0 18 -7 20 -87 20 -49 0 -105 3 -125 6 l-38
7 0 93 0 94 141 0 c140 0 140 0 137 23 -3 22 -6 22 -164 25 l-161 2 -7 -31z"/>
<path d="M2507 774 c-4 -4 -7 -126 -7 -271 l0 -263 25 0 25 0 0 227 c0 133 4
223 9 218 5 -6 44 -91 86 -190 107 -249 112 -257 138 -253 17 2 39 44 122 233
l100 230 3 -232 2 -233 25 0 25 0 -2 268 -3 267 -35 0 -35 0 -99 -227 c-54
-126 -102 -228 -106 -228 -4 0 -52 102 -107 228 -95 219 -100 227 -129 230
-16 2 -33 0 -37 -4z"/>
<path d="M3687 759 c-47 -25 -77 -72 -77 -122 0 -82 48 -124 169 -148 103 -20
146 -73 117 -142 -16 -39 -66 -67 -119 -67 -41 0 -94 34 -122 77 -30 49 -72
44 -54 -6 17 -45 70 -91 123 -106 175 -52 310 130 181 244 -26 22 -55 34 -117
48 -100 21 -128 43 -128 101 0 87 119 128 202 70 15 -10 30 -27 33 -38 7 -21
39 -27 50 -10 12 19 -35 78 -79 99 -54 27 -128 27 -179 0z"/>
<path d="M3320 505 l0 -265 25 0 25 0 0 265 0 265 -25 0 -25 0 0 -265z"/>
</g>
</svg>
