<?xml version="1.0" encoding="UTF-8" standalone="no"?>
<svg
   id="ic_empty_Dark_zpiv"
   width="100"
   height="100"
   viewBox="0 0 100 100"
   version="1.1"
   sodipodi:docname="img-empty-privacy-dark.svg"
   inkscape:version="1.3 (0e150ed6c4, 2023-07-21)"
   xmlns:inkscape="http://www.inkscape.org/namespaces/inkscape"
   xmlns:sodipodi="http://sodipodi.sourceforge.net/DTD/sodipodi-0.dtd"
   xmlns="http://www.w3.org/2000/svg"
   xmlns:svg="http://www.w3.org/2000/svg">
  <sodipodi:namedview
     id="namedview1"
     pagecolor="#ffffff"
     bordercolor="#000000"
     borderopacity="0.25"
     inkscape:showpageshadow="2"
     inkscape:pageopacity="0.0"
     inkscape:pagecheckerboard="0"
     inkscape:deskcolor="#d1d1d1"
     inkscape:zoom="8.13"
     inkscape:cx="50.061501"
     inkscape:cy="50"
     inkscape:window-width="1920"
     inkscape:window-height="1009"
     inkscape:window-x="1912"
     inkscape:window-y="562"
     inkscape:window-maximized="1"
     inkscape:current-layer="ic_empty_Dark_zpiv" />
  <defs
     id="defs1">
    <style
       type="text/css"
       id="style1">&#10;            .cls-1{fill:#413d4a}.cls-2{fill:#a09ea5}.cls-3{fill:none}&#10;        </style>
  </defs>
  <g
     id="Group_9081"
     data-name="Group 9081">
    <path
       id="Path_19026"
       d="M50 26a24 24 0 1 0 24 24 24 24 0 0 0-24-24zm0 42a18 18 0 1 1 18-18 18 18 0 0 1-18 18z"
       class="cls-1"
       data-name="Path 19026" />
    <g
       id="Group_9080"
       data-name="Group 9080">
      <g
         id="Group_9078"
         data-name="Group 9078">
        <path
           id="Path_19027"
           d="M50 31a19 19 0 1 0 19 19 19.021 19.021 0 0 0-19-19zm0 36a17 17 0 1 1 17-17 17.019 17.019 0 0 1-17 17z"
           class="cls-2"
           data-name="Path 19027" />
        <path
           id="Rectangle_4744"
           d="M0 0h2v4H0z"
           class="cls-2"
           data-name="Rectangle 4744"
           transform="translate(83 56)" />
        <path
           id="Rectangle_4745"
           d="M0 0h2v8H0z"
           class="cls-2"
           data-name="Rectangle 4745"
           transform="translate(83 44)" />
        <path
           id="Rectangle_4746"
           d="M0 0h2v8H0z"
           class="cls-2"
           data-name="Rectangle 4746"
           transform="translate(15 48)" />
        <path
           id="Rectangle_4747"
           d="M0 0h2v4H0z"
           class="cls-2"
           data-name="Rectangle 4747"
           transform="translate(15 40)" />
        <path
           id="Path_19028"
           d="M95.162 71H85v-7h-2v9h7.838L76 90.456 61.162 73H68v-2h-4.461a24.989 24.989 0 0 0-22.4-44.374L24 6.456 4.838 29H15v7h2v-9H9.162L24 9.544 38.838 27H32v2h4.461a24.989 24.989 0 0 0 22.4 44.374L76 93.544zM27 50a23 23 0 1 1 23 23 23.026 23.026 0 0 1-23-23z"
           class="cls-2"
           data-name="Path 19028" />
      </g>
    </g>
  </g>
  <path
     id="Rectangle_4748"
     d="M0 0h100v100H0z"
     class="cls-3"
     data-name="Rectangle 4748" />
</svg>
